<mxfile host="app.diagrams.net" agent="Mozilla/5.0 (Windows NT 10.0; Win64; x64) AppleWebKit/537.36 (KHTML, like Gecko) Chrome/128.0.0.0 Safari/537.36" version="24.7.16">
  <diagram name="Page-1" id="Om3JP_7HnYrNw11Sojyp">
    <mxGraphModel dx="1050" dy="557" grid="1" gridSize="10" guides="1" tooltips="1" connect="1" arrows="1" fold="1" page="1" pageScale="1" pageWidth="850" pageHeight="1100" math="0" shadow="0">
      <root>
        <mxCell id="0" />
        <mxCell id="1" parent="0" />
        <mxCell id="BKdlNlOYopz3AHE_X5E4-7" value="" style="edgeStyle=orthogonalEdgeStyle;rounded=0;orthogonalLoop=1;jettySize=auto;html=1;" edge="1" parent="1" source="BKdlNlOYopz3AHE_X5E4-1" target="BKdlNlOYopz3AHE_X5E4-4">
          <mxGeometry relative="1" as="geometry">
            <Array as="points">
              <mxPoint x="140" y="180" />
              <mxPoint x="140" y="180" />
            </Array>
          </mxGeometry>
        </mxCell>
        <mxCell id="BKdlNlOYopz3AHE_X5E4-1" value="MONGO Express&lt;br&gt;(optional gui to monitor db)" style="rounded=0;whiteSpace=wrap;html=1;" vertex="1" parent="1">
          <mxGeometry x="80" y="40" width="120" height="80" as="geometry" />
        </mxCell>
        <mxCell id="BKdlNlOYopz3AHE_X5E4-6" value="" style="edgeStyle=orthogonalEdgeStyle;rounded=0;orthogonalLoop=1;jettySize=auto;html=1;" edge="1" parent="1" source="BKdlNlOYopz3AHE_X5E4-2" target="BKdlNlOYopz3AHE_X5E4-4">
          <mxGeometry relative="1" as="geometry">
            <Array as="points">
              <mxPoint x="160" y="300" />
              <mxPoint x="160" y="300" />
            </Array>
          </mxGeometry>
        </mxCell>
        <mxCell id="BKdlNlOYopz3AHE_X5E4-2" value="MONGO" style="rounded=0;whiteSpace=wrap;html=1;" vertex="1" parent="1">
          <mxGeometry x="80" y="360" width="130" height="80" as="geometry" />
        </mxCell>
        <mxCell id="BKdlNlOYopz3AHE_X5E4-8" value="" style="edgeStyle=orthogonalEdgeStyle;rounded=0;orthogonalLoop=1;jettySize=auto;html=1;" edge="1" parent="1" source="BKdlNlOYopz3AHE_X5E4-3" target="BKdlNlOYopz3AHE_X5E4-4">
          <mxGeometry relative="1" as="geometry">
            <Array as="points">
              <mxPoint x="240" y="240" />
              <mxPoint x="240" y="240" />
            </Array>
          </mxGeometry>
        </mxCell>
        <mxCell id="BKdlNlOYopz3AHE_X5E4-14" value="" style="edgeStyle=orthogonalEdgeStyle;rounded=0;orthogonalLoop=1;jettySize=auto;html=1;" edge="1" parent="1" source="BKdlNlOYopz3AHE_X5E4-3" target="BKdlNlOYopz3AHE_X5E4-12">
          <mxGeometry relative="1" as="geometry" />
        </mxCell>
        <mxCell id="BKdlNlOYopz3AHE_X5E4-3" value="SERVER" style="rounded=0;whiteSpace=wrap;html=1;" vertex="1" parent="1">
          <mxGeometry x="320" y="200" width="130" height="80" as="geometry" />
        </mxCell>
        <mxCell id="BKdlNlOYopz3AHE_X5E4-9" value="" style="edgeStyle=orthogonalEdgeStyle;rounded=0;orthogonalLoop=1;jettySize=auto;html=1;" edge="1" parent="1" source="BKdlNlOYopz3AHE_X5E4-4" target="BKdlNlOYopz3AHE_X5E4-2">
          <mxGeometry relative="1" as="geometry">
            <Array as="points">
              <mxPoint x="145" y="300" />
              <mxPoint x="145" y="300" />
            </Array>
          </mxGeometry>
        </mxCell>
        <mxCell id="BKdlNlOYopz3AHE_X5E4-10" value="" style="edgeStyle=orthogonalEdgeStyle;rounded=0;orthogonalLoop=1;jettySize=auto;html=1;" edge="1" parent="1" source="BKdlNlOYopz3AHE_X5E4-4" target="BKdlNlOYopz3AHE_X5E4-1">
          <mxGeometry relative="1" as="geometry">
            <Array as="points">
              <mxPoint x="150" y="140" />
              <mxPoint x="150" y="140" />
            </Array>
          </mxGeometry>
        </mxCell>
        <mxCell id="BKdlNlOYopz3AHE_X5E4-11" value="" style="edgeStyle=orthogonalEdgeStyle;rounded=0;orthogonalLoop=1;jettySize=auto;html=1;" edge="1" parent="1" source="BKdlNlOYopz3AHE_X5E4-4" target="BKdlNlOYopz3AHE_X5E4-3">
          <mxGeometry relative="1" as="geometry">
            <Array as="points">
              <mxPoint x="300" y="230" />
              <mxPoint x="300" y="230" />
            </Array>
          </mxGeometry>
        </mxCell>
        <mxCell id="BKdlNlOYopz3AHE_X5E4-4" value="Internal&amp;nbsp;&lt;br&gt;network" style="ellipse;shape=cloud;whiteSpace=wrap;html=1;" vertex="1" parent="1">
          <mxGeometry x="90" y="190" width="120" height="80" as="geometry" />
        </mxCell>
        <mxCell id="BKdlNlOYopz3AHE_X5E4-13" value="" style="edgeStyle=orthogonalEdgeStyle;rounded=0;orthogonalLoop=1;jettySize=auto;html=1;" edge="1" parent="1" source="BKdlNlOYopz3AHE_X5E4-12" target="BKdlNlOYopz3AHE_X5E4-3">
          <mxGeometry relative="1" as="geometry" />
        </mxCell>
        <mxCell id="BKdlNlOYopz3AHE_X5E4-16" value="" style="edgeStyle=orthogonalEdgeStyle;rounded=0;orthogonalLoop=1;jettySize=auto;html=1;" edge="1" parent="1" source="BKdlNlOYopz3AHE_X5E4-12" target="BKdlNlOYopz3AHE_X5E4-15">
          <mxGeometry relative="1" as="geometry" />
        </mxCell>
        <mxCell id="BKdlNlOYopz3AHE_X5E4-19" style="edgeStyle=orthogonalEdgeStyle;rounded=0;orthogonalLoop=1;jettySize=auto;html=1;entryX=1;entryY=0.5;entryDx=0;entryDy=0;" edge="1" parent="1" source="BKdlNlOYopz3AHE_X5E4-12" target="BKdlNlOYopz3AHE_X5E4-1">
          <mxGeometry relative="1" as="geometry">
            <Array as="points">
              <mxPoint x="600" y="80" />
            </Array>
          </mxGeometry>
        </mxCell>
        <mxCell id="BKdlNlOYopz3AHE_X5E4-12" value="External&lt;br&gt;network" style="ellipse;shape=cloud;whiteSpace=wrap;html=1;" vertex="1" parent="1">
          <mxGeometry x="550" y="200" width="120" height="80" as="geometry" />
        </mxCell>
        <mxCell id="BKdlNlOYopz3AHE_X5E4-17" value="" style="edgeStyle=orthogonalEdgeStyle;rounded=0;orthogonalLoop=1;jettySize=auto;html=1;" edge="1" parent="1" source="BKdlNlOYopz3AHE_X5E4-15" target="BKdlNlOYopz3AHE_X5E4-12">
          <mxGeometry relative="1" as="geometry" />
        </mxCell>
        <mxCell id="BKdlNlOYopz3AHE_X5E4-15" value="INTERNET" style="rounded=0;whiteSpace=wrap;html=1;" vertex="1" parent="1">
          <mxGeometry x="740" y="210" width="120" height="60" as="geometry" />
        </mxCell>
        <mxCell id="BKdlNlOYopz3AHE_X5E4-18" style="edgeStyle=orthogonalEdgeStyle;rounded=0;orthogonalLoop=1;jettySize=auto;html=1;exitX=1;exitY=0.5;exitDx=0;exitDy=0;entryX=0.4;entryY=0.1;entryDx=0;entryDy=0;entryPerimeter=0;" edge="1" parent="1" source="BKdlNlOYopz3AHE_X5E4-1" target="BKdlNlOYopz3AHE_X5E4-12">
          <mxGeometry relative="1" as="geometry">
            <Array as="points">
              <mxPoint x="590" y="80" />
              <mxPoint x="590" y="208" />
            </Array>
          </mxGeometry>
        </mxCell>
      </root>
    </mxGraphModel>
  </diagram>
</mxfile>
